<svg version="1.1" xmlns="http://www.w3.org/2000/svg" xmlns:xlink="http://www.w3.org/1999/xlink" x="0px" y="0px" viewBox="0 0 32 32" xml:space="preserve" width="32" height="32">
<title>barcode qr</title>
<g>
	<path fill="#576672" d="M0,12h12V0H0V12z M2,2h8v8H2V2z"/> 
	<rect fill="#576672" x="4" y="4" width="4" height="4"/> 
	<path fill="#576672" d="M0,32h12V20H0V32z M2,22h8v8H2V22z"/> 
	<rect fill="#576672" x="4" y="24" width="4" height="4"/> 
	<path fill="#576672" d="M20,0v12h12V0H20z M30,10h-8V2h8V10z"/> 
	<rect fill="#576672" x="24" y="4" width="4" height="4"/> 
	<polygon fill="#576672" points="1,13 1,17 7,17 7,19 9,19 9,17 11,17 11,15 3,15 3,13 "/> 
	<polygon fill="#576672" points="30,13 28,13 28,15 26,15 26,21 19,21 19,23 32,23 32,21 28,21 28,17 32,17 32,15 30,15 "/> 
	<polygon fill="#576672" points="18,17 21,17 21,19 23,19 23,15 16,15 16,12 18,12 18,10 16,10 16,7 19,7 19,1 17,1 17,5 14,5 14,20 18,20 "/> 
	<polygon fill="#576672" points="30,25 28,25 28,27 26,27 26,30 23,30 23,26 17,26 17,24 15,24 15,32 17,32 17,28 21,28 21,32 32,32 32,30 30,30 "/>
</g>
</svg>