<?xml version="1.0" encoding="UTF-8"?>
<!DOCTYPE svg PUBLIC "-//W3C//DTD SVG 1.1//EN" "http://www.w3.org/Graphics/SVG/1.1/DTD/svg11.dtd">
<svg xmlns="http://www.w3.org/2000/svg" xml:space="preserve" width="1024px" height="1024px" shape-rendering="geometricPrecision" text-rendering="geometricPrecision" image-rendering="optimizeQuality" fill-rule="nonzero" clip-rule="evenodd" viewBox="0 0 1024 1024" xmlns:xlink="http://www.w3.org/1999/xlink">
<path fill="none" d="M176,443c0-21.134,5.844-40.891,16-57.75V288h32v63.059c9.663-6.735,20.438-11.984,32-15.42V288h64v47.639
	c11.562,3.436,22.337,8.685,32,15.42V288h32v97.25c10.156,16.859,16,36.616,16,57.75v136l48,12.013V288h64v319.029l32,8.008V288h32
	v335.046l15,3.754c5.867,1.462,11.538,3.298,17,5.47V288h32v362.684c29.831,23.525,48,59.714,48,100.217V768h208V256H128v448.529
	c16.655,1.837,32.926,5.438,48,10.471V443z M768,288h64v446.2h-64V288z M704,288h32v448h-32V288z"/>
<path fill="#252525" d="M608,288v344.27c11.719,4.659,22.456,10.888,32,18.414V288H608z"/>
<rect x="768" y="288" fill="#252525" width="64" height="446.2"/>
<rect x="704" y="288" fill="#252525" width="32" height="448"/>
<polygon fill="#252525" points="448,288 448,591.013 512,607.029 512,288 "/>
<path fill="#252525" d="M192,288v97.25c8.15-13.528,19.08-25.186,32-34.191V288H192z"/>
<path fill="#252525" d="M352,288v63.059c12.92,9.006,23.85,20.663,32,34.191V288H352z"/>
<path fill="#252525" d="M256,288v47.639c10.139-3.013,20.877-4.639,32-4.639s21.861,1.625,32,4.639V288H256z"/>
<polygon fill="#252525" points="544,288 544,615.038 576,623.046 576,288 "/>
<path fill="#252525" d="M896,192H128c-35.3,0-64,28.7-64,64v450.895c20.84-4.172,42.733-4.712,64-2.366V256h768v512H688v64h208
	c35.2,0,64-28.8,64-64V256C960,220.8,931.3,192,896,192z"/>
<path fill="#252525" d="M648.477,773.936c0-38.473-16.352-72.85-43.2-95.196c-8.589-7.149-18.253-13.066-28.8-17.491
	c-4.916-2.063-10.02-3.808-15.3-5.196l-13.5-3.566l-28.8-7.607l-28.8-7.607l-57.6-15.214l-43.2-11.411V481.459
	c0-20.076-5.259-38.842-14.4-54.857c-7.335-12.851-17.171-23.924-28.8-32.478c-8.696-6.398-18.395-11.384-28.8-14.647
	c-9.125-2.863-18.789-4.407-28.8-4.407s-19.675,1.544-28.8,4.407c-10.406,3.263-20.104,8.249-28.8,14.647
	c-11.628,8.554-21.465,19.627-28.8,32.478c-9.141,16.015-14.399,34.781-14.399,54.857v258.375
	c-13.566-4.782-28.211-8.201-43.2-9.946c-19.141-2.229-38.844-1.716-57.6,2.247c-19.955,4.216-38.834,12.328-54.81,25.178
	c-19.44,15.673-32.4,36.951-38.79,61.554c-4.5,17.193-2.16,33.816,6.93,48.825c9.09,15.009,22.41,24.318,39.06,27.262
	c37.53,6.649,70.83,21.753,98.1,50.25c10.98,11.493,20.25,24.507,28.98,37.901c6.93,10.733,12.331,20.803,21.241,30.207
	c11.159,11.779,23.22,21.468,35.729,31.536c5.85,4.75,13.5,10.639,18.271,16.719c3.239,4.085,3.689,7.219,3.689,12.634
	c0,1.709,0.09,3.419,0.18,5.129c9-3.325,18.63-5.129,28.62-5.129h28.8c0-57.28-43.47-71.053-74.43-103.73
	c-4.68-5.13-10.709-15.769-14.58-21.752c-10.89-16.813-22.229-32.393-36-46.641c-36.27-37.9-80.459-58.419-129.06-67.063
	c2.97-11.399,8.55-21.563,18.18-29.352c5.909-4.772,12.72-8.351,20.069-10.922c26.011-9.099,58.793-5.542,82.44,2.753
	c17.543,6.172,35.254,3.588,50.427-7.314c0.474-0.341,0.945-0.688,1.414-1.044c15.479-11.78,23.939-29.163,23.939-49.301V481.459
	c0-13.495,5.565-25.619,14.4-33.97c7.645-7.226,17.735-11.625,28.8-11.625c11.064,0,21.155,4.4,28.8,11.625
	c8.834,8.351,14.4,20.475,14.4,33.97v129.187c0,15.527,5.315,29.702,14.399,40.472c7.382,8.752,17.251,15.252,28.8,18.388
	c0.151,0.042,0.298,0.089,0.45,0.129l57.15,15.096l57.6,15.214l28.8,7.607l28.35,7.488c0.151,0.04,0.299,0.087,0.45,0.129
	c11.629,3.154,21.463,9.518,28.8,18.117c6.302,7.388,10.755,16.424,12.912,26.495c0.971,4.529,1.488,9.262,1.488,14.153v16.244
	v60.793v12.159c0,10.259-1.71,18.048-6.12,27.168l-33.21,70.292c-12.331,26.027-18.27,52.435-18.27,81.502v32.107h28.8
	c9.99,0,19.62,1.805,28.62,5.129c0.091-1.71,0.18-3.42,0.18-5.129v-32.107c0-19.568,3.87-36.856,12.15-54.334l33.3-70.293
	c8.28-17.479,12.15-34.766,12.15-54.334v-12.159v-60.793V773.936z"/>
</svg>
