<?xml version="1.0" encoding="UTF-8"?>
<!DOCTYPE svg PUBLIC "-//W3C//DTD SVG 1.1//EN" "http://www.w3.org/Graphics/SVG/1.1/DTD/svg11.dtd">
<svg xmlns="http://www.w3.org/2000/svg" xml:space="preserve" width="1024px" height="1024px" shape-rendering="geometricPrecision" text-rendering="geometricPrecision" image-rendering="optimizeQuality" fill-rule="nonzero" clip-rule="evenodd" viewBox="0 0 1024 1024" xmlns:xlink="http://www.w3.org/1999/xlink">
<path fill="none" d="M565.276,679.625c-29.544-23.953-56.975-57.187-78.376-101.503c-17.284,48.607-39.091,96.616-65.417,142.223
	C467.706,701.98,517.544,688.41,565.276,679.625z"/>
<path fill="none" d="M758.363,714.824c-5.39-8.827-51.073-13.998-66.112-11.835C702.571,709.928,754.384,720.883,758.363,714.824z"
	/>
<path fill="none" d="M591.5,367.5h-78.656c1.129,7.629,0.673,16.679-1.343,25.788h-19.805c0.057-7.618-1.256-13.959-4.977-17.561
	c-6.87,1.155-5.996,42.383-3.386,66.319c2.405-11.778,6.771-28.207,8.023-42.14h18.587c2.757,28.742-1.453,83.852-6.318,118.957
	c18.638,70.094,78.221,138.894,120.729,153.447c79.374-8.93,113.881-3.017,142.126,10.562c28.244,13.57,10.023,43.18,10.023,43.18
	s3.05,11.622-25.108,18.484c-32.86,6.076-123.621-24.278-138.882-36.977c-7.692-8.024-207.328,34.789-209.023,42.924
	c-2.215,8.657-64.828,110.194-103.91,128.942c-34.384,17.194-42.967,0.154-45.92-0.82c-6.377,0-15.327-6.768-10.126-28.576
	c19.142-57.007,99.306-93.206,99.306-93.206l8.239,10.853c0,0,103.661-177.626,114.753-248.854
	c-24.829-71.025-15.509-132.805-12.292-151.323H192V896h640V352c0-17.6-14.4-32-32-32H640V160c0-17.6-14.4-32-32-32H192v31.5h399.5
	V367.5z"/>
<polygon fill="none" points="704,256 800,256 704,160 "/>
<path fill="none" d="M278.55,854.884c4.947,3.068,54.416-51.717,64-74.815C328.443,789.178,271.779,849.364,278.55,854.884z"/>
<path fill="#252525" d="M858.5,218.5l-117-117C716.6,76.6,686.2,64,651,64H128v95.5h64V128h416c17.6,0,32,14.4,32,32v160h160
	c17.6,0,32,14.4,32,32v544H192V367.5h-64V960h768V309C896,273.8,883.4,243.4,858.5,218.5z M704,256v-96l96,96H704z"/>
<path fill="#252525" d="M323.84,294.755c2.652-6.133,3.98-16.076,3.98-29.828c0-18.203-2.967-30.666-8.896-37.385
	c-5.932-6.719-15.766-10.08-29.5-10.08h-13.229v93.875h12.994c11.082,0,18.963-1.23,23.646-3.691
	C317.518,305.185,321.186,300.888,323.84,294.755z"/>
<path fill="#252525" d="M117.355,213.462H102.25v38.375h12.998c10.227,0,17.408-1.779,21.545-5.34
	c4.137-3.559,6.207-8.117,6.207-13.672c0-5.398-1.797-9.975-5.387-13.73C134.021,215.341,127.27,213.462,117.355,213.462z"/>
<path fill="#252525" d="M453.538,367.5c-3.217,18.518-12.536,80.298,12.292,151.323c-11.092,71.229-114.753,248.854-114.753,248.854
	l-8.239-10.853c0,0-80.164,36.199-99.306,93.206c-5.2,21.808,3.749,28.576,10.126,28.576c2.953,0.974,11.536,18.014,45.92,0.82
	c39.083-18.748,101.695-120.286,103.91-128.942c1.695-8.135,201.331-50.948,209.023-42.924
	c15.262,12.699,106.022,43.052,138.882,36.977c28.158-6.862,25.108-18.484,25.108-18.484s18.222-29.61-10.023-43.18
	c-28.245-13.579-62.752-19.492-142.126-10.562c-42.509-14.553-102.091-83.353-120.729-153.447
	c4.865-35.105,9.076-90.215,6.318-118.957h-18.587c-1.251,13.933-5.618,30.362-8.023,42.14c-2.61-23.937-3.484-65.164,3.386-66.319
	c3.721,3.602,5.033,9.942,4.977,17.561h19.805c2.017-9.108,2.473-18.159,1.343-25.788H591.5v-208H192h-64H4.5v208H128h64H453.538z
	 M278.55,854.884c-6.771-5.521,49.893-65.706,64-74.815C332.966,803.167,283.498,857.952,278.55,854.884z M758.363,714.824
	c-3.979,6.059-55.792-4.896-66.112-11.835C707.29,700.827,752.973,705.997,758.363,714.824z M486.9,578.122
	c21.401,44.317,48.832,77.551,78.376,101.503c-47.731,8.785-97.57,22.354-143.793,40.719
	C447.809,674.738,469.616,626.729,486.9,578.122z M409.375,178.587h131.25v36.875H462.75v29.875h66.5v34.75h-66.5v70.25h-53.375
	V178.587z M223.07,178.587h78.887c15.551,0,28.111,2.109,37.686,6.326c9.572,4.219,17.484,10.271,23.736,18.16
	c6.25,7.889,10.783,17.066,13.596,27.531c2.813,10.467,4.221,21.557,4.221,33.271c0,18.355-2.092,32.59-6.271,42.703
	c-4.182,10.115-9.984,18.59-17.406,25.424c-7.424,6.834-15.395,11.383-23.912,13.648c-11.645,3.125-22.193,4.686-31.648,4.686
	H223.07V178.587z M178.994,271.946c-10.42,9.762-26.322,14.641-47.709,14.641H102.25v63.75H48.875v-171.75h88.223
	c19.215,0,33.605,4.568,43.174,13.705s14.354,22.139,14.354,39.006C194.625,248.636,189.414,262.185,178.994,271.946z"/>
</svg>
