<?xml version="1.0" encoding="UTF-8"?>
<!DOCTYPE svg PUBLIC "-//W3C//DTD SVG 1.1//EN" "http://www.w3.org/Graphics/SVG/1.1/DTD/svg11.dtd">
<svg xmlns="http://www.w3.org/2000/svg" xml:space="preserve" width="1024px" height="1024px" shape-rendering="geometricPrecision" text-rendering="geometricPrecision" image-rendering="optimizeQuality" fill-rule="nonzero" clip-rule="evenodd" viewBox="0 0 1024 1024" xmlns:xlink="http://www.w3.org/1999/xlink">
<path fill="none" d="M512,128c-212.1,0-384,28.7-384,64s171.9,64,384,64c212.1,0,384-28.7,384-64S724.1,128,512,128z"/>
<polygon fill="none" points="608,715.563 608,766.438 633.45,741 "/>
<path fill="#252525" d="M960,248.2V192c0-53-200.6-96-448-96c-247.4,0-448,43-448,96v56.2c0,26.5,9.4,49.2,28.1,67.9l295.8,295.8
	C406.6,630.6,416,653.3,416,679.8V928c0,44.023,90.845,27.482,147.558-7.962l-42.143-42.143c-6.82-6.875-6.82-18.041,0-24.916
	L608,766.438v-50.875l-86.585-86.543c-6.82-6.875-6.82-18.04,0-24.915l74.69-74.69c6.875-6.82,18.04-6.82,24.915,0l48.771,48.794
	L931.9,316.1C950.6,297.4,960,274.7,960,248.2z M512,256c-212.1,0-384-28.7-384-64s171.9-64,384-64c212.1,0,384,28.7,384,64
	S724.1,256,512,256z"/>
<path id="curve0" fill="#252525" d="M563.885,836.62L655.55,745l-91.665-91.62c-5.58-5.625-5.58-14.76,0-20.385l61.11-61.11
	c5.625-5.58,14.76-5.58,20.385,0L737,663.55l91.62-91.665c5.625-5.58,14.76-5.58,20.385,0l61.11,61.11
	c5.58,5.625,5.58,14.76,0,20.385L818.45,745l91.665,91.62c5.58,5.625,5.58,14.76,0,20.385l-61.11,61.11
	c-5.625,5.579-14.76,5.579-20.385,0L737,826.45l-91.62,91.666c-5.625,5.579-14.76,5.579-20.385,0l-61.11-61.11
	C558.305,851.38,558.305,842.245,563.885,836.62z"/>
</svg>
