<?xml version="1.0" encoding="UTF-8"?>
<!DOCTYPE svg PUBLIC "-//W3C//DTD SVG 1.1//EN" "http://www.w3.org/Graphics/SVG/1.1/DTD/svg11.dtd">
<svg xmlns="http://www.w3.org/2000/svg" xml:space="preserve" width="580px" height="580px" shape-rendering="geometricPrecision" text-rendering="geometricPrecision" image-rendering="optimizeQuality" fill-rule="nonzero" clip-rule="nonzero" viewBox="0 0 5800 5800" xmlns:xlink="http://www.w3.org/1999/xlink">
	<title>gearwheel icon</title>
	<desc>gearwheel icon from the IconExperience.com I-Collection. Copyright by INCORS GmbH (www.incors.com).</desc>
		<path fill="#000000" d="M2900 1888c552,0 1000,447 1000,1000 0,552 -448,1000 -1000,1000 -552,0 -1000,-448 -1000,-1000 0,-553 448,-1000 1000,-1000zm0 200c-442,0 -800,358 -800,800 0,441 358,800 800,800 442,0 800,-359 800,-800 0,-442 -358,-800 -800,-800zm1198 -793c32,24 62,48 90,72 29,24 58,50 86,77l486 -132c117,-32 239,14 306,115 38,57 72,112 103,166 31,55 61,112 91,173 53,110 31,237 -57,322l-361 350c9,37 16,76 23,115 6,38 12,76 16,115l456 210c110,51 174,165 161,285 -7,64 -16,128 -28,193 -12,67 -26,131 -42,192 -30,118 -129,201 -251,210l-502 36c-17,33 -35,67 -55,101 -20,34 -41,67 -62,98l214 455c52,110 28,237 -60,321 -49,47 -98,90 -146,131 -48,39 -100,79 -156,119 -98,71 -228,71 -326,0l-408 -295c-36,15 -72,29 -107,42 -35,12 -71,24 -109,35l-129 485c-31,118 -131,201 -253,208 -65,4 -129,6 -196,6 -67,-1 -132,-4 -196,-9 -121,-9 -221,-93 -250,-210l-123 -488c-36,-12 -72,-24 -107,-37 -38,-14 -73,-28 -106,-42l-410 290c-99,69 -230,68 -327,-4 -52,-38 -103,-79 -155,-122 -51,-44 -99,-88 -145,-134 -87,-84 -109,-211 -56,-321l219 -453c-20,-32 -40,-64 -58,-96 -19,-33 -37,-66 -53,-99l-502 -42c-121,-11 -220,-95 -248,-213 -17,-67 -30,-130 -40,-194 -11,-62 -20,-127 -26,-195 -12,-121 53,-233 164,-282l459 -206c4,-34 10,-72 17,-112 7,-37 14,-74 23,-110l-358 -355c-86,-86 -107,-213 -53,-322 29,-59 60,-116 93,-174 34,-57 69,-112 106,-166 68,-100 190,-145 306,-111l485 137c26,-24 54,-49 85,-75 30,-25 60,-49 89,-70l-46 -502c-11,-121 55,-233 166,-281 58,-26 119,-50 182,-73 63,-23 125,-43 188,-60 117,-33 238,12 307,112l282 416c36,-2 75,-3 114,-2 41,0 79,1 115,3l288 -414c69,-100 191,-143 307,-109 66,20 128,40 187,62 60,22 120,47 181,74 111,50 176,163 163,283l-51 501zm-39 224c-29,-25 -57,-47 -85,-68 -54,-41 -82,-104 -75,-171l52 -506c4,-36 -14,-66 -47,-81 -56,-25 -112,-48 -168,-69 -58,-21 -115,-40 -173,-57 -34,-10 -68,2 -88,31l-291 419c-38,55 -101,85 -168,81 -38,-3 -75,-4 -109,-4 -34,0 -70,1 -108,3 -67,3 -129,-27 -167,-83l-285 -421c-20,-30 -54,-42 -88,-32 -62,17 -120,36 -174,55 -54,20 -110,42 -170,68 -33,15 -51,45 -47,81l46 508c6,67 -22,129 -76,170 -31,22 -59,44 -85,65 -26,22 -52,46 -80,71 -49,46 -117,63 -182,45l-489 -139c-34,-10 -67,2 -88,31 -36,53 -68,104 -98,155 -30,51 -58,104 -87,161 -15,32 -10,67 16,93l361 358c48,48 67,114 51,180 -9,35 -16,69 -22,104 -6,31 -11,67 -16,105 -8,67 -49,123 -111,151l-464 208c-33,14 -50,45 -47,81 6,61 14,121 24,182 11,60 23,119 37,179 9,35 36,57 71,60l508 43c66,5 124,45 154,105 16,32 33,64 50,94 18,31 36,62 55,91 37,57 42,125 12,186l-222 458c-15,32 -9,67 16,92 47,45 91,86 135,124 44,37 92,75 144,113 29,22 64,22 94,1l415 -293c55,-38 124,-45 186,-18 35,15 68,29 99,41 34,12 68,23 101,34 65,19 113,69 129,135l125 493c8,35 35,58 71,60 65,5 125,8 182,8 59,1 120,-1 184,-5 35,-2 62,-25 72,-59l129 -491c17,-66 66,-115 131,-134 33,-9 67,-21 103,-33 35,-13 68,-26 101,-40 62,-26 130,-19 185,21l412 298c29,21 65,21 94,0 48,-35 96,-71 144,-111 47,-39 92,-79 137,-121 25,-25 32,-60 17,-92l-217 -459c-29,-62 -23,-131 15,-187 20,-31 40,-62 58,-93 18,-30 35,-62 52,-95 31,-60 88,-99 156,-104l507 -36c36,-3 63,-26 71,-60 17,-64 30,-122 40,-178 10,-57 19,-116 26,-180 4,-36 -13,-66 -46,-81l-462 -213c-61,-29 -102,-85 -109,-153 -4,-36 -9,-72 -15,-108 -6,-35 -13,-71 -21,-108 -16,-65 4,-132 52,-179l365 -354c25,-24 32,-60 16,-92 -26,-54 -54,-108 -84,-161 -31,-54 -63,-105 -96,-154 -20,-31 -53,-43 -88,-33l-491 134 0 -1c-66,18 -131,1 -181,-46 -25,-25 -52,-49 -81,-73z"/>
</svg>