<?xml version="1.0" encoding="UTF-8"?>
<!DOCTYPE svg PUBLIC "-//W3C//DTD SVG 1.1//EN" "http://www.w3.org/Graphics/SVG/1.1/DTD/svg11.dtd">
<svg width="326px" height="519px" viewBox="0 0 326 519" version="1.1" xmlns="http://www.w3.org/2000/svg" xmlns:xlink="http://www.w3.org/1999/xlink">
    <!-- Generator: Sketch 43.2 (39069) - http://www.bohemiancoding.com/sketch -->
    <title>guest-with-QR</title>
    <desc>Created with Sketch.</desc>
    <defs>
	<polygon id="path-1" points="0 130.234425 0 260.417194 325.942054 260.417194 325.942054 130.234425 325.942054 0.0516555585 0 0.0516555585"></polygon>
    </defs>
    <g id="Messe-App-UI-new" stroke="none" stroke-width="1" fill="none" fill-rule="evenodd">
	<g id="03-QR-Code-Scannen" transform="translate(-797.000000, -261.000000)">
	    <g id="guest-with-QR" transform="translate(797.000000, 261.000000)">
		<path d="M75.8113035,166.517283 C68.1543608,140.643486 74.9897662,135.405262 81.8518044,135.405262 L83.0653171,135.405262 L83.0653171,135.001062 C81.8518044,130.95884 75.8113035,107.111435 96.3654159,92.9646299 C112.871121,97.006636 137.849722,97.4054472 171.661192,82.8598304 C236.496489,54.9650305 242.538278,135.405262 242.538278,135.405262 L243.751791,135.405262 C250.592566,135.405262 257.448376,140.665044 249.791433,166.517283 C244.149136,186.727098 238.929958,192.39108 234.902814,192.789891 C231.273015,217.041712 212.753523,247.754491 182.147874,258.259395 C176.107159,260.27932 169.271753,261.503779 162.812429,261.503779 C156.374369,261.503779 149.512116,260.27932 143.471615,258.259395 C113.67118,247.35568 94.3305807,217.041712 90.7005669,192.789891 C86.6736379,192.39108 81.4329815,186.727098 75.8113035,166.517283 Z M137.012076,276.447344 C145.463709,279.271359 153.920496,280.892473 163.188081,280.892473 C172.042428,280.892473 180.515324,279.271359 188.966956,276.447344 C223.594594,264.321326 245.345466,232.390556 252.605064,204.495325 C262.270209,195.188148 266.701141,179.440708 269.110984,171.356912 C272.740783,158.433487 276.767927,139.425495 266.701141,126.09787 C266.297353,125.699058 265.900008,125.300247 265.481185,124.475678 C268.290521,108.307869 268.290521,94.559875 265.08384,82.0352612 C261.056696,65.06983 252.203423,49.3008327 238.908479,35.9518652 C232.067705,28.670865 224.415057,22.2090447 215.959129,16.9652155 C208.307556,11.7000446 200.650828,7.65803854 192.596541,4.83962857 C185.336943,2.41959871 177.701693,0.797622525 170.447679,0.398811263 C167.634048,0 164.406964,0 161.593547,0 C144.690497,0 129.376826,4.04179047 115.684537,12.125587 C103.603536,18.9862186 95.9465929,27.0700151 91.522319,32.7342129 C85.4813886,35.1542427 78.6195651,39.1960332 72.1815046,47.2798297 C58.8814058,64.2452608 54.854262,90.5180845 60.497418,125.300247 C60.1002879,125.699058 59.7029431,126.09787 59.2841201,126.91705 C49.2379535,139.845864 53.2650973,158.832082 56.8678339,171.78267 C59.2841201,179.866466 63.7086088,195.630074 73.3789086,204.915694 C80.6329222,232.412114 102.362961,263.922515 137.012076,276.447344 L137.012076,276.447344 Z" id="Fill-1" fill="#1D4470"></path>
		<g id="Group-5" transform="translate(0.000000, 258.569892)">
		    <mask id="mask-2" fill="white">
			<use xlink:href="#path-1"></use>
		    </mask>
		    <g id="Clip-3"></g>
		    <path d="M162.970812,65.1613348 C201.47079,65.1613348 237.336155,45.6785799 267.352192,12.2402151 C258.889928,7.29419533 251.432061,3.18327379 245.461475,0.0516555585 C232.99235,14.9715027 216.499197,28.3007891 195.559438,35.9737919 C185.102542,39.6047472 174.226934,41.6236186 162.970598,41.6236186 C152.116665,41.6236186 141.235905,39.6047472 130.778795,35.9737919 C109.441355,28.3007891 92.9482014,15.3933564 80.4792916,0.0516555585 C74.5093496,3.18327379 67.0525556,7.29419533 58.5898618,12.2380627 C88.6048255,45.6785799 124.470835,65.1613348 162.970812,65.1613348" id="Fill-2" fill="#1D4470" mask="url(#mask-2)"></path>
		    <path d="M232.374259,94.5275198 C238.419961,94.5275198 243.336787,99.4606256 243.336787,105.523697 L243.336787,244.72897 C243.336787,250.789889 238.419961,255.720842 232.374259,255.720842 L93.56758,255.720842 C87.521235,255.720842 82.6037643,250.789889 82.6037643,244.72897 L82.6037643,105.523697 C82.6037643,99.4606256 87.521235,94.5275198 93.56758,94.5275198 L232.374259,94.5275198 Z M167.74814,76.8397956 L167.74814,94.4737119 L158.193485,94.4737119 L158.193485,76.8397956 C117.623976,75.2750626 79.9717275,53.8272443 48.6362383,18.171995 C34.0379197,27.0352279 17.2619039,37.9388554 0,50.4954608 C20.015842,78.0730721 46.7836827,100.442081 77.9073469,115.073518 L77.9073469,244.72897 C77.9073469,253.387733 84.9334088,260.430108 93.56758,260.430108 L232.374259,260.430108 C241.008216,260.430108 248.034707,253.387733 248.034707,244.72897 L248.034707,115.073518 C279.158157,100.442081 305.924924,78.0730721 325.942054,50.4954608 C308.680579,37.9388554 291.904134,27.0352279 277.30603,18.171995 C245.970112,53.8272443 208.317434,75.2750626 167.74814,76.8397956 L167.74814,76.8397956 Z" id="Fill-4" fill="#1D4470" mask="url(#mask-2)"></path>
		</g>
		<path d="M115.625851,394.276819 L123.974751,394.276819 L123.974751,385.135654 L115.625851,385.135654 L115.625851,394.276819 Z M109.595442,399.946237 L130.02849,399.946237 L130.02849,379.483871 L109.595442,379.483871 L109.595442,399.946237 Z" id="Fill-6" fill="#FFFFFF"></path>
		<path d="M202.013559,480.78845 L210.363169,480.78845 L210.363169,471.64827 L202.013559,471.64827 L202.013559,480.78845 Z M195.97151,486.446237 L216.404558,486.446237 L216.404558,465.983871 L195.97151,465.983871 L195.97151,486.446237 Z" id="Fill-7" fill="#FFFFFF"></path>
		<path d="M115.625851,480.78845 L123.974751,480.78845 L123.974751,471.64827 L115.625851,471.64827 L115.625851,480.78845 Z M109.595442,486.446237 L130.02849,486.446237 L130.02849,465.983871 L109.595442,465.983871 L109.595442,486.446237 Z" id="Fill-8" fill="#FFFFFF"></path>
		<path d="M202.013559,394.286855 L210.363169,394.286855 L210.363169,385.14766 L202.013559,385.14766 L202.013559,394.286855 Z M195.97151,399.946237 L216.404558,399.946237 L216.404558,379.483871 L195.97151,379.483871 L195.97151,399.946237 Z" id="Fill-9" fill="#FFFFFF"></path>
		<path d="M101.773827,408.013097 L137.979635,408.013097 L137.979635,371.754787 L101.773827,371.754787 L101.773827,408.013097 Z M147.184323,375.836962 L155.334111,375.836962 L155.334111,385.814658 L175.809522,385.814658 L175.809522,386.553746 L176.172526,386.553746 L176.172526,403.466843 L168.034109,403.466843 L168.034109,393.963968 L147.707161,393.963968 L147.707161,393.545008 L147.184323,393.545008 L147.184323,375.836962 Z M188.021438,408.013097 L224.227675,408.013097 L224.227675,371.754787 L188.021438,371.754787 L188.021438,408.013097 Z M188.021438,494.383329 L224.227675,494.383329 L224.227675,458.125019 L188.021438,458.125019 L188.021438,494.383329 Z M176.73913,459.968444 L184.877332,459.968444 L184.877332,432.678029 L176.73913,432.678029 L176.73913,459.968444 Z M191.106759,449.964966 L199.245176,449.964966 L199.245176,438.075094 L191.106759,438.075094 L191.106759,449.964966 Z M176.445423,419.924454 L211.093874,419.924454 L211.093874,411.796628 L219.233149,411.796628 L219.233149,449.964966 L211.093874,449.964966 L211.093874,428.073765 L176.445423,428.073765 L176.445423,419.924454 Z M161.906375,429.322051 L170.044792,429.322051 L170.044792,418.684762 L161.906375,418.684762 L161.906375,429.322051 Z M157.071682,446.53379 L172.064271,446.53379 L172.064271,438.38448 L157.071682,438.38448 L157.071682,446.53379 Z M180.812844,480.336349 L142.076304,480.336349 L142.076304,472.174147 L157.37676,472.174147 L157.37676,456.21714 L165.515177,456.21714 L165.515177,472.174147 L180.812844,472.174147 L180.812844,480.336349 Z M153.948173,491.564479 L168.316016,491.564479 L168.316016,483.415169 L153.948173,483.415169 L153.948173,491.564479 Z M143.633661,469.342407 L151.772078,469.342407 L151.772078,406.79489 L143.633661,406.79489 L143.633661,469.342407 Z M142.076304,428.595853 L142.076304,436.758055 L122.397271,436.758055 L122.397271,439.952894 L114.247269,439.952894 L114.247269,422.766937 L102.72682,422.766937 L102.72682,414.604735 L133.917506,414.604735 L133.917506,422.766937 L122.397271,422.766937 L122.397271,428.595853 L142.076304,428.595853 Z M101.773827,494.383329 L137.979635,494.383329 L137.979635,458.125019 L101.773827,458.125019 L101.773827,494.383329 Z M82.6609687,364.417614 L82.6609687,503.377005 C82.6609687,509.427219 87.5767579,514.349462 93.6210354,514.349462 L232.380252,514.349462 C238.423886,514.349462 243.339031,509.427219 243.339031,503.377005 L243.339031,364.417614 C243.339031,358.365253 238.423886,353.44086 232.380252,353.44086 L93.6210354,353.44086 C87.5767579,353.44086 82.6609687,358.365253 82.6609687,364.417614 L82.6609687,364.417614 Z" id="Fill-10" fill="#FFFFFF"></path>
		<path d="M109.38995,399.232067 L129.316368,399.232067 L129.316368,379.278681 L109.38995,379.278681 L109.38995,399.232067 Z M101.236467,407.387097 L137.458689,407.387097 L137.458689,371.112903 L101.236467,371.112903 L101.236467,407.387097 Z" id="Fill-11" fill="#1A1918"></path>
		<polygon id="Fill-12" fill="#1A1918" points="116.096866 394.365591 124.45584 394.365591 124.45584 385.064516 116.096866 385.064516"></polygon>
		<path d="M109.38995,485.723469 L129.316368,485.723469 L129.316368,465.767933 L109.38995,465.767933 L109.38995,485.723469 Z M101.236467,493.887097 L137.458689,493.887097 L137.458689,457.612903 L101.236467,457.612903 L101.236467,493.887097 Z" id="Fill-13" fill="#1A1918"></path>
		<polygon id="Fill-14" fill="#1A1918" points="116.096866 480.865591 124.45584 480.865591 124.45584 471.564516 116.096866 471.564516"></polygon>
		<path d="M196.694696,399.223469 L216.620235,399.223469 L216.620235,379.265784 L196.694696,379.265784 L196.694696,399.223469 Z M188.541311,407.387097 L224.763533,407.387097 L224.763533,371.112903 L188.541311,371.112903 L188.541311,407.387097 Z" id="Fill-15" fill="#1A1918"></path>
		<polygon id="Fill-16" fill="#1A1918" points="202.472934 394.365591 210.831909 394.365591 210.831909 385.064516 202.472934 385.064516"></polygon>
		<path d="M196.694696,485.723469 L216.620235,485.723469 L216.620235,465.767933 L196.694696,465.767933 L196.694696,485.723469 Z M188.541311,493.887097 L224.763533,493.887097 L224.763533,457.612903 L188.541311,457.612903 L188.541311,493.887097 Z" id="Fill-17" fill="#1A1918"></path>
		<polygon id="Fill-18" fill="#1A1918" points="202.472934 480.865591 210.831909 480.865591 210.831909 471.564516 202.472934 471.564516"></polygon>
		<polyline id="Fill-19" fill="#1A1918" points="147.265738 393.646675 147.265738 394.06978 167.455122 394.06978 167.455122 403.666667 175.538462 403.666667 175.538462 386.586247 175.177914 386.586247 175.177914 385.839847 154.841072 385.839847 154.841072 375.763441 146.746439 375.763441 146.746439 393.646675 147.265738 393.646675"></polyline>
		<polyline id="Fill-20" fill="#1A1918" points="133.821882 422.914405 133.821882 414.827957 102.165242 414.827957 102.165242 422.914405 113.857794 422.914405 113.857794 439.94086 122.129548 439.94086 122.129548 436.775672 142.102564 436.775672 142.102564 428.689224 122.129548 428.689224 122.129548 422.914405 133.821882 422.914405"></polyline>
		<polygon id="Fill-21" fill="#1A1918" points="143.031339 468.774194 151.390313 468.774194 151.390313 406.456989 143.031339 406.456989"></polygon>
		<polyline id="Fill-22" fill="#1A1918" points="165.706024 455.752688 157.510459 455.752688 157.510459 471.751764 142.102564 471.751764 142.102564 479.935484 181.111111 479.935484 181.111111 471.751764 165.706024 471.751764 165.706024 455.752688"></polyline>
		<polygon id="Fill-23" fill="#1A1918" points="153.247863 492.026882 168.108262 492.026882 168.108262 483.655914 153.247863 483.655914"></polygon>
		<polygon id="Fill-24" fill="#1A1918" points="176.467236 460.403226 184.826211 460.403226 184.826211 432.5 176.467236 432.5"></polygon>
		<polygon id="Fill-25" fill="#1A1918" points="156.962963 446.451613 171.823362 446.451613 171.823362 438.080645 156.962963 438.080645"></polygon>
		<polygon id="Fill-26" fill="#1A1918" points="161.606838 429.709677 169.965812 429.709677 169.965812 418.548387 161.606838 418.548387"></polygon>
		<polygon id="Fill-27" fill="#1A1918" points="191.327635 450.172043 199.68661 450.172043 199.68661 438.080645 191.327635 438.080645"></polygon>
		<polyline id="Fill-28" fill="#1A1918" points="211.063798 450.172043 219.190883 450.172043 219.190883 412.037634 211.063798 412.037634 211.063798 420.158235 176.467236 420.158235 176.467236 428.300301 211.063798 428.300301 211.063798 450.172043"></polyline>
	    </g>
	</g>
    </g>
</svg>
