<?xml version="1.0" encoding="UTF-8"?>
<!DOCTYPE svg PUBLIC "-//W3C//DTD SVG 1.1//EN" "http://www.w3.org/Graphics/SVG/1.1/DTD/svg11.dtd">
<svg xmlns="http://www.w3.org/2000/svg" xml:space="preserve" width="580px" height="580px" shape-rendering="geometricPrecision" text-rendering="geometricPrecision" image-rendering="optimizeQuality" fill-rule="nonzero" clip-rule="nonzero" viewBox="0 0 5800 5800" xmlns:xlink="http://www.w3.org/1999/xlink">
	<title>id_card icon</title>
	<desc>id_card icon from the IconExperience.com I-Collection. Copyright by INCORS GmbH (www.incors.com).</desc>
		<path id="curve28" fill="#000000" d="M5100 2100l0 2600 -2000 0 0 -2600 2000 0zm-4198 1600l1198 0 0 200 -1198 0 0 -200zm-202 -2400l4400 0c220,0 400,180 400,400l0 3000c0,220 -180,400 -400,400l-4400 0c-220,0 -400,-180 -400,-400l0 -3000c0,-220 180,-400 400,-400zm4400 200l-4400 0c-110,0 -200,90 -200,200l0 3000c0,110 90,200 200,200l4400 0c110,0 200,-90 200,-200l0 -3000c0,-110 -90,-200 -200,-200zm-4200 1000l1798 0 0 200 -1798 0 0 -200zm2 597l1798 0 0 200 -1798 0 0 -200zm2671 -118c-5,-268 260,-417 505,-377 62,11 92,27 143,60 192,-95 424,123 406,315l-17 271c24,84 -4,189 -87,230 -25,93 -89,243 -160,312 3,83 8,218 88,264 82,51 134,54 225,87 53,19 122,43 163,83 23,22 44,48 61,75l0 -1999 -1600 0 0 1999c17,-27 38,-53 61,-75 41,-40 110,-64 163,-83 91,-33 143,-36 225,-87 77,-44 88,-183 88,-264 -69,-67 -134,-218 -160,-312 -82,-41 -111,-147 -87,-230l-17 -269z"/>
</svg>