<?xml version="1.0" encoding="UTF-8"?>
<!DOCTYPE svg PUBLIC "-//W3C//DTD SVG 1.1//EN" "http://www.w3.org/Graphics/SVG/1.1/DTD/svg11.dtd">
<svg xmlns="http://www.w3.org/2000/svg" xml:space="preserve" width="580px" height="580px" shape-rendering="geometricPrecision" text-rendering="geometricPrecision" image-rendering="optimizeQuality" fill-rule="nonzero" clip-rule="nonzero" viewBox="0 0 5800 5800" xmlns:xlink="http://www.w3.org/1999/xlink">
	<title>keys icon</title>
	<desc>keys icon from the IconExperience.com I-Collection. Copyright by INCORS GmbH (www.incors.com).</desc>
		<path id="curve30" fill="#000000" d="M3800 300c718,0 1300,582 1300,1300 0,718 -582,1300 -1300,1300 -72,0 -143,-6 -212,-17 -53,-18 -88,-49 -88,-83 0,-55 90,-100 200,-100l100 0c608,0 1100,-492 1100,-1100 0,-608 -492,-1100 -1100,-1100 -410,0 -784,228 -974,589 -98,14 -193,58 -269,130 167,-546 672,-919 1243,-919z"/>
	<path id="curve29" fill="#000000" d="M895 4660c-31,-14 -54,-38 -70,-66 -16,-29 -25,-64 -25,-94l0 -442 1459 -1458 -188 -188c-117,-117 -117,-308 0,-424l617 -617c116,-117 308,-117 424,0l354 354c-74,16 -145,39 -213,70l-282 -283c-39,-39 -103,-39 -142,0l-617 617c-38,39 -39,103 0,142l329 329 -1541 1542 0 347 380 189 20 -19 0 -159c0,-171 129,-300 300,-300l100 0 0 -100c0,-171 129,-300 300,-300l100 0 0 -100c0,-85 28,-159 79,-213 50,-55 122,-87 208,-87l172 0 74 -75c33,60 71,117 114,169l-106 106 -254 0c-28,0 -49,8 -62,23 -16,17 -25,44 -25,77l0 300 -300 0c-61,0 -100,39 -100,100l0 300 -300 0c-61,0 -100,39 -100,100l0 241 -180 181 -525 -262zm2157 -2749c-92,67 -174,149 -241,241l-46 -46c-30,-30 -44,-68 -44,-106 0,-38 14,-77 44,-106l29 -29c29,-30 68,-44 106,-44 38,0 76,14 106,44l46 46z"/>
	<path id="curve28" fill="#000000" d="M3700 2400c132,0 254,41 343,108 19,15 37,31 53,47 -95,30 -194,45 -296,45 -53,0 -112,-3 -165,5 -109,15 -232,71 -235,190 0,95 72,154 155,182 9,3 19,6 31,8 71,19 142,15 214,15 124,0 246,-16 363,-48 -27,54 -69,101 -120,140 -89,67 -211,108 -343,108 -132,0 -253,-41 -343,-108 -97,-73 -157,-176 -157,-292 0,-116 60,-219 157,-292 90,-67 211,-108 343,-108zm600 2700l0 -200 -300 0 0 -200 300 0 0 -200 -400 0 0 -1019 70 -22c158,-50 293,-141 387,-260 62,-78 107,-167 128,-264 75,-39 147,-84 215,-135 0,195 -69,376 -186,523 -105,132 -248,236 -414,302l0 675 400 0c0,333 0,667 0,1000l-400 0 0 200c-267,0 -533,0 -800,0l0 -1875c-166,-66 -309,-170 -414,-302 -117,-147 -186,-328 -186,-523 0,-251 114,-477 297,-640 181,-161 429,-260 703,-260 274,0 522,99 703,260 19,17 38,35 56,53 -46,49 -97,93 -152,131 -12,-12 -24,-24 -37,-35 -145,-129 -347,-209 -570,-209 -223,0 -425,80 -570,209 -142,126 -230,300 -230,491 0,148 53,286 143,399 94,119 229,211 387,260l70 22 0 1819 400 0 0 -200 400 0z"/>
</svg>