<?xml version="1.0" encoding="UTF-8"?>
<!DOCTYPE svg PUBLIC "-//W3C//DTD SVG 1.1//EN" "http://www.w3.org/Graphics/SVG/1.1/DTD/svg11.dtd" [
	<!ENTITY ns_svg "http://www.w3.org/2000/svg">
	<!ENTITY ns_xlink "http://www.w3.org/1999/xlink">
]>
<!--<!DOCTYPE svg PUBLIC "-//W3C//DTD SVG 1.1//EN" "http://www.w3.org/Graphics/SVG/1.1/DTD/svg11.dtd">
 Creator: CorelDRAW X6 
<svg xmlns="http://www.w3.org/2000/svg" xml:space="preserve" width="2.81944in" height="1.33333in" version="1.1" style="shape-rendering:geometricPrecision; text-rendering:geometricPrecision; image-rendering:optimizeQuality; fill-rule:evenodd; clip-rule:evenodd"
viewBox="0 0 2819 1333"
 xmlns:xlink="http://www.w3.org/1999/xlink">-->
 <svg  version="1.1" id="Ebene_1" xmlns="&ns_svg;" xmlns:xlink="&ns_xlink;" width="181.015" height="42.205"
	 viewBox="0 0 181.015 42.205" overflow="visible" enable-background="new 0 0 181.015 42.205" xml:space="preserve">
 <defs>
  <style type="text/css">
   <![CDATA[
    .fil0 {fill:#FFFFFF;fill-rule:nonzero}
   ]]>
  </style>
 </defs>
 <g>
  <!--<metadata id="CorelCorpID_0Corel-Layer"/>-->
  <polygon fill="#FFFFFF" points="754,556 816,556 813,839 945,839 945,892 751,892 "/>
  <path fill="#FFFFFF" d="M1021 825c8,6 17,11 28,16 11,5 21,7 31,7 17,0 31,-5 40,-14 9,-9 14,-21 14,-35 0,-11 -3,-20 -10,-26 -7,-7 -16,-12 -26,-17 -10,-5 -21,-10 -33,-15 -12,-5 -23,-11 -33,-19 -10,-8 -19,-17 -26,-29 -7,-12 -10,-27 -10,-46 0,-14 3,-26 8,-38 5,-12 13,-22 23,-31 10,-9 22,-16 35,-21 14,-5 29,-8 46,-8 17,0 33,3 49,8 16,5 31,12 46,20l-26 45c-10,-6 -21,-11 -30,-15 -10,-5 -21,-7 -33,-7 -7,0 -14,1 -21,3 -7,2 -12,5 -18,9 -5,4 -9,8 -12,14 -3,6 -5,12 -5,20 0,11 3,20 10,27 7,7 16,13 26,18 10,5 22,11 34,16 12,5 24,12 34,19 10,8 19,17 26,29 7,12 10,26 10,44 0,14 -3,28 -8,40 -6,12 -13,23 -23,32 -10,9 -22,16 -35,21 -14,5 -29,8 -45,8 -17,0 -32,-2 -47,-7 -15,-4 -30,-11 -44,-19l24 -48z"/>
  <path fill="#FFFFFF" d="M1440 892l-31 0 -129 -331 31 -10 103 268c5,13 9,27 13,41 4,-14 9,-28 14,-41l107 -267 29 10 -136 331z"/>
  <path fill="#FFFFFF" d="M1656 892l-31 0 2 -241 31 0 -2 241zm-31 -289l0 -37 37 0 0 37 -37 0z"/>
  <path fill="#FFFFFF" d="M1877 684c-14,-7 -31,-15 -47,-15 -25,0 -53,12 -53,39 0,55 112,39 112,118 0,44 -39,70 -80,70 -24,0 -50,-5 -70,-18l14 -22c14,10 35,16 52,16 25,0 50,-14 50,-41 0,-61 -110,-40 -110,-120 0,-44 43,-66 82,-66 27,0 42,5 65,18l-14 21z"/>
  <path fill="#FFFFFF" d="M2004 892l-31 0 2 -241 31 0 -2 241zm-31 -289l0 -37 37 0 0 37 -37 0z"/>
  <path fill="#FFFFFF" d="M2169 897c-37,0 -47,-19 -46,-53l1 -168 -45 0 0 -26 46 0 1 -75 30 0 0 75 70 0 0 26 -71 0 -1 163c0,18 2,32 23,32 14,0 32,-8 44,-15l11 19c-18,11 -40,21 -62,21z"/>
  <path fill="#FFFFFF" d="M2384 670c-56,0 -81,49 -81,100 0,50 17,103 76,103 12,0 23,-3 34,-8 36,-18 49,-57 49,-95 0,-49 -21,-100 -77,-100zm-5 227c-76,0 -109,-56 -109,-126 0,-68 46,-125 116,-125 75,0 109,56 109,125 0,66 -46,126 -116,126z"/>
  <path fill="#FFFFFF" d="M2700 679c-5,-1 -12,-3 -17,-3 -29,0 -55,31 -68,54l-1 162 -31 0 2 -241 30 0c0,18 0,32 -2,48 18,-29 37,-53 75,-53 7,0 16,2 22,4l-11 29z"/>
  <path fill="#FFFFFF" d="M723 1010c-160,0 -289,-130 -289,-289 0,-160 130,-289 289,-289l0 28c-144,0 -262,117 -262,262 0,144 117,262 262,262l0 28z"/>
  <path fill="#FFFFFF" d="M724 1167c-141,0 -280,-66 -367,-190 -141,-202 -92,-481 110,-622l16 23c-189,133 -236,394 -103,584 133,189 394,236 584,103l16 23c-78,55 -167,81 -256,81z"/>
  <path fill="#FFFFFF" d="M377 1215c-132,-93 -221,-231 -249,-390 -28,-159 8,-319 100,-452 191,-273 569,-340 842,-148l-16 23c-260,-182 -621,-119 -803,142 -88,126 -122,279 -96,431 27,152 111,284 237,372l-16 23z"/>
 </g>
</svg>
