<?xml version="1.0" encoding="utf-8"?>
<!-- Generator: Adobe Illustrator 12.0.1, SVG Export Plug-In . SVG Version: 6.00 Build 51448)  -->
<!DOCTYPE svg PUBLIC "-//W3C//DTD SVG 1.1//EN" "http://www.w3.org/Graphics/SVG/1.1/DTD/svg11.dtd" [
	<!ENTITY ns_svg "http://www.w3.org/2000/svg">
	<!ENTITY ns_xlink "http://www.w3.org/1999/xlink">
]>
<svg  version="1.1" id="Ebene_1" xmlns="&ns_svg;" xmlns:xlink="&ns_xlink;" width="809.601" height="343.868"
	 viewBox="0 0 809.601 343.868" overflow="visible" enable-background="new 0 0 809.601 343.868" xml:space="preserve">
<g id="Layer_x0020_1">
	<polygon fill="#FFFFFF" points="198.48,137.664 217.851,137.664 216.914,226.08 258.157,226.08 258.157,242.639 197.543,242.639 	
		"/>
	<path fill="#FFFFFF" d="M281.899,221.707c2.501,1.874,5.312,3.437,8.747,5c3.439,1.56,6.564,2.187,9.687,2.187
		c5.312,0,9.687-1.563,12.497-4.373c2.814-2.813,4.375-6.563,4.375-10.935c0-3.438-0.937-6.251-3.124-8.127
		c-2.187-2.187-4.998-3.746-8.123-5.31s-6.563-3.127-10.311-4.685c-3.75-1.563-7.186-3.437-10.312-5.938
		c-3.123-2.499-5.937-5.313-8.121-9.063c-2.188-3.748-3.125-8.435-3.125-14.371c0-4.373,0.938-8.122,2.498-11.872
		c1.563-3.75,4.063-6.873,7.188-9.686c3.124-2.81,6.871-5,10.936-6.558c4.372-1.563,9.062-2.5,14.372-2.5s10.31,0.937,15.308,2.5
		c4.999,1.559,9.687,3.749,14.372,6.244l-8.123,14.063c-3.124-1.876-6.56-3.436-9.373-4.686c-3.123-1.563-6.562-2.191-10.309-2.191
		c-2.188,0-4.376,0.313-6.562,0.94c-2.188,0.623-3.75,1.56-5.625,2.81c-1.561,1.25-2.811,2.499-3.75,4.377
		c-0.936,1.873-1.561,3.75-1.561,6.245c0,3.441,0.937,6.25,3.124,8.437c2.187,2.19,4.998,4.063,8.123,5.627
		c3.124,1.559,6.874,3.436,10.622,4.999c3.75,1.56,7.5,3.745,10.624,5.937c3.123,2.499,5.937,5.309,8.123,9.059
		c2.186,3.75,3.124,8.122,3.124,13.749c0,4.372-0.938,8.745-2.5,12.494c-1.874,3.75-4.062,7.186-7.186,9.999
		c-3.125,2.813-6.875,5.001-10.937,6.56c-4.372,1.563-9.06,2.5-14.058,2.5c-5.311,0-9.999-0.624-14.686-2.188
		c-4.687-1.249-9.371-3.436-13.746-5.936l7.499-14.993L281.899,221.707z"/>
	<path fill="#FFFFFF" d="M412.811,242.639h-9.687L362.82,139.227l9.687-3.127l32.182,83.732c1.56,4.063,2.813,8.436,4.059,12.813
		c1.251-4.377,2.813-8.749,4.372-12.813l33.436-83.417l9.059,3.122l-42.494,103.416L412.811,242.639z"/>
	<path fill="#FFFFFF" d="M480.291,242.639h-9.685l0.629-75.296h9.685L480.291,242.639z M470.606,152.348v-11.563h11.563v11.563
		H470.606z"/>
	<path fill="#FFFFFF" d="M549.345,177.655c-4.378-2.189-9.687-4.686-14.682-4.686c-7.813,0-16.563,3.746-16.563,12.182
		c0,17.185,34.992,12.185,34.992,36.871c0,13.743-12.187,21.866-24.993,21.866c-7.5,0-15.622-1.56-21.871-5.622l4.376-6.874
		c4.373,3.124,10.932,5.001,16.245,5.001c7.813,0,15.621-4.377,15.621-12.813c0-19.058-34.367-12.496-34.367-37.49
		c0-13.748,13.433-20.621,25.619-20.621c8.435,0,13.121,1.561,20.306,5.623l-4.371,6.563H549.345z"/>
	<path fill="#FFFFFF" d="M589.021,242.639h-9.684l0.628-75.296h9.683L589.021,242.639z M579.338,152.348v-11.563h11.559v11.563
		H579.338z"/>
	<path fill="#FFFFFF" d="M640.575,244.201c-11.562,0-14.686-5.935-14.372-16.557l0.31-52.487h-14.06v-8.127h14.373l0.313-23.431
		h9.372v23.431h21.871v8.127h-22.185l-0.309,50.923c0,5.627,0.622,9.999,7.188,9.999c4.37,0,9.992-2.499,13.746-4.687l3.433,5.937
		c-5.622,3.437-12.495,6.56-19.371,6.56L640.575,244.201z"/>
	<path fill="#FFFFFF" d="M707.747,173.278c-17.495,0-25.308,15.309-25.308,31.245c0,15.62,5.313,32.18,23.744,32.18
		c3.751,0,7.187-0.938,10.628-2.501c11.243-5.623,15.304-17.807,15.304-29.679c0-15.309-6.559-31.245-24.059-31.245H707.747z
		 M706.184,244.201c-23.744,0-34.056-17.494-34.056-39.364c0-21.244,14.371-39.058,36.241-39.058
		c23.437,0,34.058,17.499,34.058,39.058C742.427,225.458,728.055,244.201,706.184,244.201z"/>
	<path fill="#FFFFFF" d="M806.474,176.092c-1.56-0.313-3.744-0.935-5.309-0.935c-9.063,0-17.182,9.685-21.243,16.871l-0.314,50.61
		h-9.687l0.622-75.296h9.379c0,5.627,0,9.999-0.626,15c5.62-9.064,11.561-16.563,23.434-16.563c2.185,0,4.997,0.628,6.871,1.251
		l-3.436,9.062H806.474z"/>
	<path fill="#FFFFFF" d="M188.794,279.508c-49.988,0-90.292-40.615-90.292-90.293c0-49.988,40.616-90.296,90.292-90.296v8.75
		c-44.991,0-81.855,36.553-81.855,81.859c0,44.989,36.554,81.856,81.855,81.856v8.748V279.508z"/>
	<path fill="#FFFFFF" d="M189.108,328.561c-44.055,0-87.481-20.623-114.664-59.364c-44.054-63.11-28.743-150.278,34.369-194.334
		l4.997,7.186C54.761,123.605,40.076,205.149,81.631,264.51c41.554,59.051,123.1,73.736,182.461,32.179l4.998,7.188
		c-24.369,17.185-52.176,25.308-79.981,25.308V328.561z"/>
	<path fill="#FFFFFF" d="M80.694,343.555c-41.244-29.052-69.048-72.171-77.797-121.848c-8.748-49.678,2.499-99.666,31.242-141.219
		C93.815-4.805,211.916-25.741,297.211,34.247l-5.001,7.186C210.977-15.429,98.188,4.253,41.326,85.798
		C13.833,125.164,3.21,172.97,11.332,220.459c8.436,47.486,34.68,88.73,74.048,116.223l-4.999,7.187L80.694,343.555z"/>
</g>
</svg>
