<?xml version="1.0" encoding="utf-8"?>
<!-- Generator: Adobe Illustrator 12.0.1, SVG Export Plug-In . SVG Version: 6.00 Build 51448)  -->
<!DOCTYPE svg PUBLIC "-//W3C//DTD SVG 1.1//EN" "http://www.w3.org/Graphics/SVG/1.1/DTD/svg11.dtd" [
	<!ENTITY ns_svg "http://www.w3.org/2000/svg">
	<!ENTITY ns_xlink "http://www.w3.org/1999/xlink">
]>
<svg  version="1.1" id="Ebene_1" xmlns="&ns_svg;" xmlns:xlink="&ns_xlink;" width="420" height="520" viewBox="0 0 420 520"
	 overflow="visible" enable-background="new 0 0 420 520" xml:space="preserve">
<path d="M370.129,395.635c-4.734,7.283-11.362,15.867-13.945,24.279c-1.119,3.901-1.722,8.063-1.722,12.574v24.887h-17.216v-24.887
	c0-6.158,0.773-11.968,2.496-17.604c3.185-10.666,9.984-19.685,16.097-28.875c2.497-3.644,4.305-7.459,5.51-11.447
	c1.119-3.901,1.722-8.063,1.722-12.573v-33.125c0-11.187-7.145-20.465-17.904-23.154l-95.637-24.105
	c-3.959-0.779-6.973-4.249-6.973-8.498v-58.531c0-9.539-7.748-17.343-17.216-17.343c-9.47,0-17.218,7.804-17.218,17.343v129.376
	c0.086,1.301-0.086,2.688-0.603,3.901c-1.808,4.509-6.8,6.591-11.276,4.854l-22.209-9.104c-4.304-1.733-9.469-2.774-14.806-2.774
	c-5.596,0-11.104,1.041-15.753,3.642c-4.39,2.341-8.092,6.157-10.416,11.793c-0.773,1.907-1.377,4.075-1.807,6.417
	c6.972,1.041,15.15,3.035,23.068,5.982c9.557,3.643,18.853,8.759,25.48,15.351l25.825,26.015c2.409,2.514,5.938,4.682,9.383,6.85
	c9.642,6.07,18.938,11.967,18.938,25.32v15.176h-17.217v-15.174c0-3.815-5.251-7.11-10.76-10.578
	c-4.391-2.774-8.779-5.551-12.568-9.278l-25.824-26.015c-4.734-4.854-11.793-8.672-19.196-11.444
	c-9.813-3.729-19.886-5.552-26.341-5.552c-4.735,0-8.608-3.901-8.608-8.672c0-8.063,1.377-15,3.701-20.896
	c3.874-9.625,10.416-16.303,18.077-20.465c7.49-4.076,15.84-5.811,24.018-5.811c7.575,0,15.064,1.475,21.262,3.989l10.416,4.336
	V214.576c0-19.077,15.496-34.686,34.434-34.686s34.434,15.608,34.434,34.686v51.768l89.523,22.545
	c18.336,4.596,30.989,20.896,30.989,39.975v33.125c0,6.244-0.774,12.055-2.496,17.604
	C376.155,385.143,373.572,390.432,370.129,395.635z"/>
<path d="M190.906,526.746v-26.017c0-14.307,11.621-26.014,25.825-26.014h137.731c14.203,0,25.824,11.707,25.824,26.014v26.017
	H363.07v-26.017c0-4.77-3.874-8.67-8.607-8.67H216.73c-4.734,0-8.607,3.899-8.607,8.67v26.017H190.906z"/>
<g>
	<polygon fill="none" points="60,60 60,420 183.5,420 183.5,281.5 360,281.5 360,60 	"/>
	<path fill="none" d="M180,480c-5.5,0-10-4.5-10-10s4.5-10,10-10h3.5v-20H40V40h340v241.5h8.701V500H390c5.5,0,10-4.5,10-10V30
		c0-5.5-4.5-10-10-10H30c-5.5,0-10,4.5-10,10v460c0,5.5,4.5,10,10,10h153.5v-20H180z"/>
	<polygon points="40,40 40,440 183.5,440 183.5,420 60,420 60,60 360,60 360,281.5 380,281.5 380,40 	"/>
	<path d="M390,0H30C13.5,0,0,13.5,0,30v460c0,16.5,13.5,30,30,30h153.5v-20H30c-5.5,0-10-4.5-10-10V30c0-5.5,4.5-10,10-10h360
		c5.5,0,10,4.5,10,10v460c0,5.5-4.5,10-10,10h-1.299v20H390c16.5,0,30-13.5,30-30V30C420,13.5,406.5,0,390,0z"/>
	<path d="M170,470c0,5.5,4.5,10,10,10h3.5v-20H180C174.5,460,170,464.5,170,470z"/>
</g>
</svg>
