<?xml version="1.0" encoding="utf-8"?>
<!-- Generator: Adobe Illustrator 12.0.0, SVG Export Plug-In . SVG Version: 6.00 Build 51448)  -->
<!DOCTYPE svg PUBLIC "-//W3C//DTD SVG 1.1//EN" "http://www.w3.org/Graphics/SVG/1.1/DTD/svg11.dtd" [
	<!ENTITY ns_svg "http://www.w3.org/2000/svg">
	<!ENTITY ns_xlink "http://www.w3.org/1999/xlink">
]>
<svg  version="1.1" id="Ebene_1" xmlns="&ns_svg;" xmlns:xlink="&ns_xlink;" width="594.85" height="231.766"
	 viewBox="0 0 594.85 231.766" overflow="visible" enable-background="new 0 0 594.85 231.766" xml:space="preserve">
<g>
	<polygon fill-rule="evenodd" clip-rule="evenodd" fill="#E64415" points="445.994,0 447.596,1.121 374.855,122.051 
		286.096,231.766 284.494,230.643 357.236,109.714 445.994,0 	"/>
	<polygon points="0,133.48 6.754,133.48 6.754,107.171 6.854,107.171 20.312,133.48 28.93,133.48 28.93,98.301 22.177,98.301 
		22.177,124.609 22.076,124.609 8.669,98.301 0,98.301 0,133.48 	"/>
	<path fill-rule="evenodd" clip-rule="evenodd" d="M60.842,88.977v5.846h5.846v-5.846H60.842L60.842,88.977z M56.306,94.823v-5.846
		h-5.847v5.846H56.306L56.306,94.823z M44.209,120.779c0,9.424,5.342,13.305,14.364,13.305c9.021,0,14.364-3.881,14.364-13.305
		V98.301h-7.056v20.31c0,5.998-1.916,9.93-7.308,9.93c-5.393,0-7.308-3.932-7.308-9.93v-20.31h-7.056V120.779L44.209,120.779z"/>
	<path fill-rule="evenodd" clip-rule="evenodd" d="M95.145,103.845h2.318c3.528,0,7.459,0.353,7.459,4.586
		c0,4.385-3.981,4.889-7.459,4.889h-2.318V103.845L95.145,103.845z M88.088,133.48h7.056v-14.617h2.268
		c2.974,0,3.881,1.01,4.889,3.629l4.233,10.988h7.863l-5.645-13.76c-0.706-1.563-1.814-3.478-3.729-3.628v-0.101
		c4.485-0.604,7.257-4.032,7.257-8.165c0-9.778-9.021-9.525-16.582-9.525h-7.611V133.48L88.088,133.48z"/>
	<polygon points="129.231,133.48 135.984,133.48 135.984,107.171 136.085,107.171 149.542,133.48 158.161,133.48 158.161,98.301 
		151.407,98.301 151.407,124.609 151.306,124.609 137.9,98.301 129.231,98.301 129.231,133.48 	"/>
	<path fill-rule="evenodd" clip-rule="evenodd" d="M182.241,117.756h3.327c3.528,0,7.257,0.705,7.257,5.291
		c0,4.082-3.981,4.889-7.257,4.889h-3.327V117.756L182.241,117.756z M182.241,103.845h2.722c3.225,0,6.804,0.303,6.804,4.385
		c0,3.628-3.68,4.284-6.653,4.284h-2.873V103.845L182.241,103.845z M175.185,133.48h12.298c4.435,0,12.398-1.311,12.398-10.182
		c0-4.334-3.276-7.56-8.064-8.013v-0.101c4.183-0.756,7.005-3.679,7.005-7.862c0-7.711-6.804-9.021-11.34-9.021h-12.298V133.48
		L175.185,133.48z"/>
	<polygon points="215.972,133.48 236.837,133.48 236.837,127.936 223.028,127.936 223.028,118.059 235.578,118.059 235.578,112.514 
		223.028,112.514 223.028,103.845 236.736,103.845 236.736,98.301 215.972,98.301 215.972,133.48 	"/>
	<path fill-rule="evenodd" clip-rule="evenodd" d="M260.541,103.845h2.318c3.528,0,7.459,0.353,7.459,4.586
		c0,4.385-3.982,4.889-7.459,4.889h-2.318V103.845L260.541,103.845z M253.484,133.48h7.056v-14.617h2.268
		c2.974,0,3.881,1.01,4.889,3.629l4.234,10.988h7.862l-5.645-13.76c-0.706-1.563-1.814-3.478-3.729-3.628v-0.101
		c4.486-0.604,7.258-4.032,7.258-8.165c0-9.778-9.022-9.525-16.582-9.525h-7.611V133.48L253.484,133.48z"/>
	<path d="M320.994,99.158c-3.023-0.907-6.25-1.461-10.332-1.461c-11.945,0-19.303,6.753-19.303,18.799
		c0,11.894,7.913,17.589,19.303,17.589c3.781,0,7.662-0.805,11.391-1.813V113.32H307.84v5.543h7.459v9.174
		c-1.209,0.303-2.721,0.504-4.637,0.504c-7.51,0-11.945-5.393-11.945-12.55c0-7.207,4.537-12.751,12.751-12.751
		c2.822,0,6.352,0.604,9.072,1.865L320.994,99.158L320.994,99.158z"/>
	<polygon points="410.047,133.48 416.799,133.48 416.799,104.55 416.9,104.45 426.377,133.48 433.129,133.48 442.605,104.45 
		442.705,104.45 442.705,133.48 449.459,133.48 449.459,98.301 438.17,98.301 429.803,124.963 429.703,124.963 421.336,98.301 
		410.047,98.301 410.047,133.48 	"/>
	<polygon points="465.355,133.48 486.221,133.48 486.221,127.936 472.412,127.936 472.412,118.059 484.961,118.059 484.961,112.514 
		472.412,112.514 472.412,103.845 486.121,103.845 486.121,98.301 465.355,98.301 465.355,133.48 	"/>
	<path d="M521.648,98.956c-2.57-0.857-5.393-1.26-8.416-1.26c-6.199,0-12.299,2.873-12.299,10.735
		c0,11.643,15.424,8.87,15.424,15.575c0,3.174-3.578,4.535-6.25,4.535c-2.771,0-5.545-0.857-7.963-2.168l-0.656,6.352
		c3.479,0.855,5.191,1.359,9.021,1.359c7.107,0,13.205-2.922,13.205-10.633c0-11.794-15.422-9.224-15.422-15.322
		c0-3.831,3.125-4.889,5.543-4.889c2.471,0,4.939,0.554,7.158,1.512L521.648,98.956L521.648,98.956z"/>
	<path d="M557.1,98.956c-2.57-0.857-5.393-1.26-8.416-1.26c-6.199,0-12.299,2.873-12.299,10.735c0,11.643,15.424,8.87,15.424,15.575
		c0,3.174-3.58,4.535-6.25,4.535c-2.773,0-5.545-0.857-7.965-2.168l-0.654,6.352c3.479,0.855,5.191,1.359,9.021,1.359
		c7.107,0,13.205-2.922,13.205-10.633c0-11.794-15.422-9.224-15.422-15.322c0-3.831,3.125-4.889,5.543-4.889
		c2.471,0,4.939,0.554,7.158,1.512L557.1,98.956L557.1,98.956z"/>
	<polygon points="573.984,133.48 594.85,133.48 594.85,127.936 581.039,127.936 581.039,118.059 593.59,118.059 593.59,112.514 
		581.039,112.514 581.039,103.845 594.748,103.845 594.748,98.301 573.984,98.301 573.984,133.48 	"/>
</g>
</svg>
