<?xml version="1.0" encoding="utf-8"?>
<!-- Generator: Adobe Illustrator 12.0.1, SVG Export Plug-In . SVG Version: 6.00 Build 51448)  -->
<!DOCTYPE svg PUBLIC "-//W3C//DTD SVG 1.1//EN" "http://www.w3.org/Graphics/SVG/1.1/DTD/svg11.dtd" [
	<!ENTITY ns_svg "http://www.w3.org/2000/svg">
	<!ENTITY ns_xlink "http://www.w3.org/1999/xlink">
]>
<svg  version="1.1" id="Ebene_1" xmlns="&ns_svg;" xmlns:xlink="&ns_xlink;" width="86.039" height="86.039"
	 viewBox="0 0 86.039 86.039" overflow="visible" enable-background="new 0 0 86.039 86.039" xml:space="preserve">
<g>
	<g>
		<path fill="none" stroke="#FFFFFF" stroke-width="4" d="M18.02,55.52c9-11,18-23,30-20c5,1,0,11,10,10c4-1,11-12,13-15"/>
		<path fill="none" stroke="#FFFFFF" stroke-width="4" d="M19.242,56.375c5.772-7.073,11.598-15.398,20.32-18.98
			c3.115-1.28,8.764-1.942,9.678,2.084c0.395,1.737,0.607,3.865,1.847,5.265c8.037,9.07,17.636-8.056,21.155-13.368
			c1.063-1.603-1.379-3.319-2.444-1.712C66.632,34.439,63.173,41.136,58,43.948c-3.83,2.084-5.311-2.472-5.822-4.988
			c-0.285-1.409-0.798-3.404-2.169-4.182c-13.042-7.397-26.575,11.751-33.212,19.886C15.579,56.157,18.032,57.857,19.242,56.375
			L19.242,56.375z"/>
	</g>
</g>
<rect x="0.5" y="0.5" fill="none" stroke="#FFFFFF" stroke-width="2" width="85.039" height="85.039"/>
</svg>
