<?xml version="1.0" encoding="UTF-8"?>
<!DOCTYPE svg PUBLIC "-//W3C//DTD SVG 1.1//EN" "http://www.w3.org/Graphics/SVG/1.1/DTD/svg11.dtd">
<svg xmlns="http://www.w3.org/2000/svg" xml:space="preserve" width="1024px" height="1024px" shape-rendering="geometricPrecision" text-rendering="geometricPrecision" image-rendering="optimizeQuality" fill-rule="nonzero" clip-rule="evenodd" viewBox="0 0 1024 1024" xmlns:xlink="http://www.w3.org/1999/xlink">
<title>user plus icon</title>
<desc>user icon from the IconExperience.com O-Collection. Copyright by INCORS GmbH (www.incors.com).</desc>
<path fill="#252525" d="M694.063,659.763c-22.853-9.887-49.852-22.184-80.834-45.292c-46.067,29.08-100.629,45.966-159.133,45.966
	s-113.065-16.886-159.143-45.966c-111.933,83.438-172.187,51.307-172.187,233.533c0,83.763,198.789,116.888,331.329,116.888
	l-0.072-13.153c-9.1,0-16.562-7.483-16.562-16.584V806.833c0-9.101,7.462-16.543,16.562-16.543h118.438l-0.424-114.029
	c0-9.101,7.422-16.542,16.562-16.542h105.308"/>
<path id="curve0" fill="#252525" d="M454.096,96.921c146.393,0,265.06,118.657,265.06,265.07
	c0,146.403-118.667,265.07-265.06,265.07c-146.413,0-265.069-118.667-265.069-265.07C189.026,215.578,307.683,96.921,454.096,96.921
	z"/>
<path id="curve0_1_" fill="#252525" d="M479.445,819.927H598.74V700.633c0-7.28,5.944-13.246,13.245-13.246h79.516
	c7.28,0,13.245,5.966,13.245,13.246v119.294h119.295c7.28,0,13.245,5.946,13.245,13.246v79.497c0,7.279-5.965,13.266-13.245,13.266
	H704.746v119.274c0,7.279-5.965,13.265-13.245,13.265h-79.516c-7.301,0-13.245-5.985-13.245-13.265V925.936H479.445
	c-7.281,0-13.246-5.986-13.246-13.266v-79.497C466.199,825.873,472.165,819.927,479.445,819.927z"/>
</svg>
